<?xml version="1.0" encoding="utf-8"?>
<!-- Generator: Adobe Illustrator 21.0.0, SVG Export Plug-In . SVG Version: 6.00 Build 0)  -->
<svg version="1.1" id="Layer_1" xmlns="http://www.w3.org/2000/svg" xmlns:xlink="http://www.w3.org/1999/xlink" x="0px" y="0px"
	 viewBox="0 0 392 89" style="enable-background:new 0 0 392 89;" xml:space="preserve">
<style type="text/css">
	.st0{fill:#FFFFFF;}
</style>
<g>
	<g>
		<g>
			<path class="st0" d="M109.8,18.4h19c16.3,0,26.5,10.5,26.5,26.8S145,72.1,128.8,72.1h-19L109.8,18.4z M128.3,62.2
				c10.2,0,15.8-6.6,15.8-17s-5.6-17-15.8-17h-7.4v34H128.3z"/>
			<path class="st0" d="M184.1,43.7c-1.7-0.9-3.5-1.4-5.4-1.3c-3.7,0-6.6,1.9-7.4,5.5v24.2h-10.9V33h10.9v3.8c1.9-3,5.2-4.8,8.8-4.7
				c1.4-0.1,2.8,0.2,4.1,0.7L184.1,43.7z"/>
			<path class="st0" d="M205.7,73c-11.4,0-19.2-8.4-19.2-20.4s7.8-20.5,19.2-20.5s19.1,8.4,19.1,20.5S217.1,73,205.7,73 M205.7,41.3
				c-5.4,0-8.4,4.7-8.4,11.3s3,11.2,8.4,11.2s8.4-4.7,8.4-11.2S211.1,41.3,205.7,41.3 M240.4,86.5h-10.9V33h10.9v3.2
				c2.6-2.7,6.1-4.1,9.8-4.1c11.4,0,17.8,9.4,17.8,20.5S261.5,73,250.2,73c-3.7,0-7.2-1.5-9.8-4.1V86.5z M240.4,59
				c1.4,2.8,4.2,4.6,7.4,4.5c5.9,0,9.4-4.7,9.4-10.9s-3.5-11-9.4-11c-3.1,0-5.9,1.8-7.4,4.5V59z M283.6,72.1h-10.9V15.3h10.9v21
				c2.6-2.7,6.1-4.1,9.8-4.1c11.4,0,17.8,9.3,17.8,20.5S304.8,73,293.4,73c-3.7,0-7.2-1.5-9.8-4.1L283.6,72.1z M283.6,59
				c1.3,2.8,4.2,4.6,7.4,4.5c5.9,0,9.4-4.7,9.4-10.9s-3.5-11-9.4-11c-3.1,0-5.9,1.8-7.4,4.5V59z M334.2,73.1
				c-11.4,0-19.2-8.4-19.2-20.4s7.8-20.5,19.2-20.5s19.1,8.4,19.1,20.5S345.6,73.1,334.2,73.1 M334.2,41.4c-5.4,0-8.4,4.7-8.4,11.3
				s3,11.2,8.4,11.2s8.4-4.7,8.4-11.2S339.6,41.4,334.2,41.4"/>
			<path class="st0" d="M377.7,51.9L392,72.1h-12l-8.4-12.2l-8.5,12.2h-11.4l14.1-19.9L352.5,33h12l7.5,11.1l7.7-11.1h11.4
				C391.1,33,377.7,51.9,377.7,51.9z M28.2,0L0,18.2L19.5,34l28.4-17.5L28.2,0z"/>
			<path class="st0" d="M0,49.4l28.2,18.6l19.7-16.4L19.5,34L0,49.4z"/>
			<path class="st0" d="M47.9,51.5l19.7,16.4l28.2-18.4L76.3,34C76.3,34,47.9,51.5,47.9,51.5z M95.8,18.4L67.6,0L47.9,16.4L76.3,34
				L95.8,18.4z"/>
			<path class="st0" d="M48,55L28.2,71.4l-8.5-5.5v6.2L48,89l28.2-16.9v-6.2l-8.4,5.5C67.8,71.4,48,55,48,55z"/>
		</g>
	</g>
</g>
</svg>
