<svg width="392" height="89" viewBox="0 0 392 89" fill="none" xmlns="http://www.w3.org/2000/svg">
<path d="M109.8 18.4H128.8C145.1 18.4 155.3 28.9 155.3 45.2C155.3 61.5 145 72.1 128.8 72.1H109.8V18.4ZM128.3 62.2C138.5 62.2 144.1 55.6 144.1 45.2C144.1 34.8 138.5 28.2 128.3 28.2H120.9V62.2H128.3Z" fill="#C2C2C2"/>
<path d="M184.1 43.7C182.4 42.8 180.6 42.3 178.7 42.4C175 42.4 172.1 44.3 171.3 47.9V72.1H160.4V33H171.3V36.8C173.2 33.8 176.5 32 180.1 32.1C181.5 32 182.9 32.3 184.2 32.8L184.1 43.7Z" fill="#C2C2C2"/>
<path d="M205.7 73C194.3 73 186.5 64.6 186.5 52.6C186.5 40.6 194.3 32.1 205.7 32.1C217.1 32.1 224.8 40.5 224.8 52.6C224.8 64.7 217.1 73 205.7 73ZM205.7 41.3C200.3 41.3 197.3 46 197.3 52.6C197.3 59.2 200.3 63.8 205.7 63.8C211.1 63.8 214.1 59.1 214.1 52.6C214.1 46.1 211.1 41.3 205.7 41.3ZM240.4 86.5H229.5V33H240.4V36.2001C243 33.5001 246.5 32.1 250.2 32.1C261.6 32.1 268 41.5 268 52.6C268 63.7 261.5 73 250.2 73C246.5 73 243 71.5001 240.4 68.9001V86.5V86.5ZM240.4 59C241.8 61.8 244.6 63.6 247.8 63.5C253.7 63.5 257.2 58.8 257.2 52.6C257.2 46.4 253.7 41.6 247.8 41.6C244.7 41.6 241.9 43.4 240.4 46.1V59V59ZM283.6 72.1H272.7V15.3H283.6V36.3C286.2 33.6 289.7 32.2001 293.4 32.2001C304.8 32.2001 311.2 41.5001 311.2 52.7001C311.2 63.9001 304.8 73 293.4 73C289.7 73 286.2 71.5001 283.6 68.9001V72.1ZM283.6 59C284.9 61.8 287.8 63.6 291 63.5C296.9 63.5 300.4 58.8 300.4 52.6C300.4 46.4 296.9 41.6 291 41.6C287.9 41.6 285.1 43.4 283.6 46.1V59ZM334.2 73.1C322.8 73.1 315 64.7001 315 52.7001C315 40.7001 322.8 32.2001 334.2 32.2001C345.6 32.2001 353.3 40.6 353.3 52.7001C353.3 64.8001 345.6 73.1 334.2 73.1ZM334.2 41.4001C328.8 41.4001 325.8 46.1001 325.8 52.7001C325.8 59.3001 328.8 63.9001 334.2 63.9001C339.6 63.9001 342.6 59.2001 342.6 52.7001C342.6 46.2001 339.6 41.4001 334.2 41.4001Z" fill="#C2C2C2"/>
<path d="M377.7 51.9L392 72.1H380L371.6 59.9L363.1 72.1H351.7L365.8 52.2L352.5 33H364.5L372 44.1L379.7 33H391.1C391.1 33 377.7 51.9 377.7 51.9ZM28.2 0L0 18.2L19.5 34L47.9 16.5L28.2 0Z" fill="#C2C2C2"/>
<path d="M0 49.4L28.2 68L47.9 51.6L19.5 34L0 49.4Z" fill="#C2C2C2"/>
<path d="M47.9 51.5L67.6 67.9L95.8 49.5L76.3 34L47.9 51.5ZM95.8 18.4L67.6 0L47.9 16.4L76.3 34L95.8 18.4Z" fill="#C2C2C2"/>
<path d="M48 55L28.2 71.4L19.7 65.9V72.1L48 89L76.1999 72.1V65.9L67.8 71.4C67.8 71.4 48 55 48 55Z" fill="#C2C2C2"/>
</svg>
