<svg width="294" height="80" viewBox="0 0 294 80" fill="none" xmlns="http://www.w3.org/2000/svg">
<g clip-path="url(#clip0)">
<path d="M56.6 34.2H31.9C31.3 34.2 30.7 34.7 30.8 35.4V47.6C30.8 48.2 31.3 48.8 31.9 48.8H41.5V63.9C41.5 63.9 39.3 64.6 33.4 64.6C26.3 64.6 16.5 62 16.5 40.2C16.5 18.4 26.8 15.5 36.4 15.5C44.7 15.5 48.3 17 50.6 17.7C51.2 17.8 51.8 17.4 52 16.8C52 16.7 52 16.7 52 16.6L54.8 4.8C54.8 4.4 54.6 4.1 54.4 3.9C53.4 3.2 47.7 0 33.4 0C16.9 0 0 7.1 0 41C0 74.9 19.4 80 35.7 80C49.2 80 57.4 74.2 57.4 74.2C57.7 74 57.8 73.7 57.8 73.3V35.4C57.8 34.8 57.3 34.3 56.6 34.2ZM183.9 4.1C183.9 3.5 183.4 2.9 182.8 2.9H168.9C168.3 2.9 167.7 3.4 167.8 4.1V31.1H146.1V4.1C146.1 3.5 145.6 2.9 145 2.9H131C130.4 2.9 129.8 3.4 129.9 4.1V77.3C129.9 77.9 130.4 78.5 131 78.5H144.9C145.5 78.5 146.1 78 146 77.3V46H167.7V77.3C167.7 77.9 168.2 78.5 168.8 78.5H182.7C183.3 78.5 183.9 78 183.8 77.3L183.9 4.1Z" fill="#C2C2C2"/>
<path d="M73.9 22.8C78.8706 22.8 82.9 18.7258 82.9 13.7C82.9 8.67418 78.8706 4.59998 73.9 4.59998C68.9295 4.59998 64.9 8.67418 64.9 13.7C64.9 18.7258 68.9295 22.8 73.9 22.8Z" fill="#C2C2C2"/>
<path d="M81.9001 61.9V28C81.9001 27.4 81.4001 26.8 80.8001 26.8H66.9001C66.2001 26.9 65.7001 27.4 65.7001 28.1V76.6C65.7001 78 66.6001 78.4 67.7001 78.4H80.2001C81.6001 78.4 81.9001 77.7 81.9001 76.5V61.9Z" fill="#C2C2C2"/>
<path d="M236.8 27H223C222.4 27 221.8 27.5 221.9 28.2V64.1C219.4 65.8 216.4 66.7 213.4 66.7C208.4 66.7 207.1 64.4 207.1 59.5V28.2C207.1 27.6 206.6 27.1 206 27H192C191.4 27 190.8 27.5 190.9 28.2V61.9C190.9 76.5 199 80 210.1 80C215.9 79.8 221.6 78.1 226.5 74.9C226.6 75.9 226.8 76.9 227 77.9C227.2 78.3 227.6 78.5 228 78.5H236.9C237.5 78.5 238.1 78 238.1 77.4V77.3V28.2C238 27.5 237.5 27 236.8 27Z" fill="#C2C2C2"/>
<path d="M274.5 25.4C269.9 25.4 265.3 26.6 261.3 28.9V4.10002C261.3 3.50002 260.8 2.90002 260.2 2.90002H246.2C245.6 2.90002 245 3.40002 245.1 4.10002V77.3C245.1 77.9 245.6 78.5 246.2 78.5H256C256.4 78.5 256.8 78.3 257 77.9C257.3 76.8 257.5 75.7 257.6 74.5C257.6 74.5 263.3 79.9 274.1 79.9C286.8 79.9 294.1 73.4 294.1 50.9C294.1 28.4 282.4 25.3 274.5 25.4ZM269.1 66.6C266.3 66.5 263.5 65.7 261.1 64.3V41.1C263.3 39.8 265.7 39 268.2 38.8C273.2 38.3 278 39.9 278 51.8C278 64.3 275.8 66.8 269.1 66.6Z" fill="#C2C2C2"/>
<path d="M121.9 26.9H111.5V13C111.5 12.5 111.2 12.2 110.6 12.2H96.3C95.7 12.2 95.5 12.4 95.5 13V27.3C95.5 27.3 88.4 29 87.9 29.2C87.4 29.3 87 29.8 87 30.3V39.3C87 39.9 87.5 40.5 88.1 40.5H95.4V62.2C95.4 78.3 106.6 79.9 114.2 79.9C117 79.8 119.8 79.4 122.5 78.5C122.9 78.3 123.2 77.9 123.2 77.4V67.5C123.2 66.9 122.7 66.3 122 66.3C121.4 66.3 119.8 66.5 118.2 66.5C113.1 66.5 111.3 64.1 111.3 61V40.5H121.7C122.3 40.5 122.9 40 122.9 39.4V28C123 27.4 122.5 26.9 121.9 26.9Z" fill="#C2C2C2"/>
</g>
<defs>
<clipPath id="clip0">
<rect width="294" height="80" fill="white"/>
</clipPath>
</defs>
</svg>
