<?xml version="1.0" encoding="utf-8"?>
<!-- Generator: Adobe Illustrator 21.0.0, SVG Export Plug-In . SVG Version: 6.00 Build 0)  -->
<svg version="1.1" id="Layer_1" xmlns="http://www.w3.org/2000/svg" xmlns:xlink="http://www.w3.org/1999/xlink" x="0px" y="0px"
	 viewBox="0 0 294 80" style="enable-background:new 0 0 294 80;" xml:space="preserve">
<style type="text/css">
	.st0{fill:#FFFFFF;}
</style>
<g>
	<g>
		<g>
			<path class="st0" d="M56.6,34.2H31.9c-0.6,0-1.2,0.5-1.1,1.2v12.2c0,0.6,0.5,1.2,1.1,1.2h9.6v15.1c0,0-2.2,0.7-8.1,0.7
				c-7.1,0-16.9-2.6-16.9-24.4s10.3-24.7,19.9-24.7c8.3,0,11.9,1.5,14.2,2.2c0.6,0.1,1.2-0.3,1.4-0.9c0-0.1,0-0.1,0-0.2l2.8-11.8
				c0-0.4-0.2-0.7-0.4-0.9C53.4,3.2,47.7,0,33.4,0C16.9,0,0,7.1,0,41s19.4,39,35.7,39c13.5,0,21.7-5.8,21.7-5.8
				c0.3-0.2,0.4-0.5,0.4-0.9V35.4C57.8,34.8,57.3,34.3,56.6,34.2z M183.9,4.1c0-0.6-0.5-1.2-1.1-1.2c0,0,0,0,0,0h-13.9
				c-0.6,0-1.2,0.5-1.1,1.2c0,0,0,0,0,0v27h-21.7v-27c0-0.6-0.5-1.2-1.1-1.2c0,0,0,0,0,0H131c-0.6,0-1.2,0.5-1.1,1.2c0,0,0,0,0,0
				v73.2c0,0.6,0.5,1.2,1.1,1.2c0,0,0,0,0,0h13.9c0.6,0,1.2-0.5,1.1-1.2c0,0,0,0,0,0V46h21.7v31.3c0,0.6,0.5,1.2,1.1,1.2
				c0,0,0,0,0,0h13.9c0.6,0,1.2-0.5,1.1-1.2c0,0,0,0,0,0L183.9,4.1z"/>
			<g>
				<ellipse class="st0" cx="73.9" cy="13.7" rx="9" ry="9.1"/>
				<path class="st0" d="M81.9,61.9V28c0-0.6-0.5-1.2-1.1-1.2c0,0,0,0,0,0H66.9c-0.7,0.1-1.2,0.6-1.2,1.3v48.5c0,1.4,0.9,1.8,2,1.8
					h12.5c1.4,0,1.7-0.7,1.7-1.9V61.9z"/>
			</g>
			<path class="st0" d="M236.8,27H223c-0.6,0-1.2,0.5-1.1,1.2c0,0,0,0,0,0v35.9c-2.5,1.7-5.5,2.6-8.5,2.6c-5,0-6.3-2.3-6.3-7.2V28.2
				c0-0.6-0.5-1.1-1.1-1.2h-14c-0.6,0-1.2,0.5-1.1,1.2c0,0,0,0,0,0v33.7c0,14.6,8.1,18.1,19.2,18.1c5.8-0.2,11.5-1.9,16.4-5.1
				c0.1,1,0.3,2,0.5,3c0.2,0.4,0.6,0.6,1,0.6h8.9c0.6,0,1.2-0.5,1.2-1.1c0,0,0-0.1,0-0.1V28.2C238,27.5,237.5,27,236.8,27
				C236.8,27,236.8,27,236.8,27z"/>
			<path class="st0" d="M274.5,25.4c-4.6,0-9.2,1.2-13.2,3.5V4.1c0-0.6-0.5-1.2-1.1-1.2c0,0,0,0,0,0h-14c-0.6,0-1.2,0.5-1.1,1.2
				c0,0,0,0,0,0v73.2c0,0.6,0.5,1.2,1.1,1.2c0,0,0,0,0,0h9.8c0.4,0,0.8-0.2,1-0.6c0.3-1.1,0.5-2.2,0.6-3.4c0,0,5.7,5.4,16.5,5.4
				c12.7,0,20-6.5,20-29S282.4,25.3,274.5,25.4z M269.1,66.6c-2.8-0.1-5.6-0.9-8-2.3V41.1c2.2-1.3,4.6-2.1,7.1-2.3
				c5-0.5,9.8,1.1,9.8,13C278,64.3,275.8,66.8,269.1,66.6z"/>
			<path class="st0" d="M121.9,26.9h-10.4V13c0-0.5-0.3-0.8-0.9-0.8H96.3c-0.6,0-0.8,0.2-0.8,0.8v14.3c0,0-7.1,1.7-7.6,1.9
				c-0.5,0.1-0.9,0.6-0.9,1.1v9c0,0.6,0.5,1.2,1.1,1.2c0,0,0,0,0,0h7.3v21.7c0,16.1,11.2,17.7,18.8,17.7c2.8-0.1,5.6-0.5,8.3-1.4
				c0.4-0.2,0.7-0.6,0.7-1.1v-9.9c0-0.6-0.5-1.2-1.2-1.2c-0.6,0-2.2,0.2-3.8,0.2c-5.1,0-6.9-2.4-6.9-5.5V40.5h10.4
				c0.6,0,1.2-0.5,1.2-1.1c0,0,0,0,0,0V28C123,27.4,122.5,26.9,121.9,26.9z"/>
		</g>
	</g>
</g>
</svg>
