<svg width="306" height="139" viewBox="0 0 306 139" fill="none" xmlns="http://www.w3.org/2000/svg">
<g clip-path="url(#clip0)">
<path d="M6.19996 133.1C4.69996 133.7 3.79996 133 4.29996 131.4L8.59996 117.4C9.09996 115.5 9.29996 113.5 9.19996 111.6L-4.28781e-05 23.4C-0.200043 21.8 0.999957 20.4001 2.59996 20.2001H2.69996L303.2 4.94537e-05C304.6 -0.0999505 305.8 0.900049 306 2.30005C306 2.50005 306 2.70005 306 2.80005L293.8 136.2C293.6 137.9 292.2 139.1 290.5 139L35.1 122.5C33.1 122.4 31.2 122.8 29.3 123.5L6.19996 133.1ZM144 59.4001C141 59.3001 138.1 60.4 135.9 62.5V48.2001H129.5V78.1C129.3 82 130.7 85.9 133.4 88.8C136 91.5 139.5 92.9 144 92.9C148.5 92.9 152.1 91.5 154.6 88.8C157.3 85.9 158.7 82.1 158.5 78.1V74.5C158.5 64.4 153.7 59.4001 144 59.4001ZM144 65.7C146.7 65.7 148.7 66.4 150.1 67.7C151.5 69 152.2 71.4 152.2 74.5V78.1C152.3 80.4 151.6 82.7 150 84.4C148.4 86 146.2 86.8 144 86.7C141.8 86.8 139.6 86 138.1 84.4C136.6 82.7 135.9 80.4 136 78.2V74.5C136 71.3 136.7 69.1 138 67.7C139.3 66.3 141.4 65.6 144 65.7ZM190.4 66.6H170.2V48.1H163.6V92.5H170.2V73H190.4V92.4H197V48.1H190.4V66.6ZM247.1 59.4001C244.1 59.3001 241.2 60.4 239 62.5V48.2001H232.6V78.1C232.4 82 233.8 85.9 236.5 88.8C239.1 91.5 242.6 92.9 247.1 92.9C251.6 92.9 255.2 91.5 257.7 88.8C260.4 85.9 261.8 82.1 261.6 78.1V74.5C261.6 64.5 256.7 59.4001 247.1 59.4001ZM247.1 65.7C249.8 65.7 251.8 66.4 253.2 67.7C254.6 69 255.3 71.4 255.3 74.5V78.1C255.4 80.4 254.6 82.7 253.1 84.4C251.5 86 249.3 86.8 247.1 86.7C244.9 86.8 242.7 86 241.2 84.4C239.7 82.7 239 80.4 239.1 78.2V74.5C239.1 71.3 239.8 69.1 241.1 67.7C242.4 66.3 244.4 65.6 247.1 65.7ZM118.2 77.8C118.2 81.1 117.7 83.5 116.7 84.8C115.7 86.1 114.2 86.7 111.8 86.7H111.6C109.3 86.7 107.6 86 106.7 84.8C105.8 83.6 105.2 81.1 105.2 77.8V60.3H99V77.8C99 83.1 100 87 101.9 89.3C103.8 91.6 106.8 92.7 111 92.8H112.5C116.7 92.7 119.7 91.5 121.6 89.3C123.5 87.1 124.5 83.1 124.5 77.8V60.3H118.3L118.2 77.8ZM221.3 77.8C221.3 81.1 220.8 83.4 219.8 84.8C218.8 86.2 217.3 86.7 214.9 86.7H214.6C212.3 86.7 210.6 86 209.7 84.8C208.8 83.6 208.2 81.1 208.2 77.8V60.3H202V77.8C202 83.1 203 87 204.9 89.3C206.8 91.6 209.8 92.7 214 92.8H215.5C219.6 92.7 222.7 91.5 224.6 89.3C226.5 87.1 227.5 83.1 227.5 77.8V60.3H221.2L221.3 77.8ZM67.4 68.4L52.1 63.3C51.2 63 50.4 62.5001 49.7 61.9001C49.2 61.5001 48.9 60.8001 48.8 60.2001V59.2001C48.8 55.6001 51.8 53.8001 57.9 53.7001H58.5C64.6 53.7001 67.8 55.3 68.1 58.6L68.2 59.1H74.8V58.5C74.5 51 69 47.1 58.5 47.1H57.8C47.5 47.2 42.3 51.3 42.3 59.1V60.1C42.3 62.2 43 64.2 44.3 65.8C45.9 67.5 47.9 68.8 50.1 69.4L65.3 74.5C67.9 75.4 69.1 76.8 69.1 78.9V79.8C69.1 81.7 68 83.4 66.3 84.2C63.8 85.5 61 86.1 58.2 85.9C54.7 85.9 52.1 85.3 50.2 84.2C48.5 83.4 47.5 81.6 47.5 79.8V79.1H41V79.8C40.9 83.5 42.6 86.9 45.6 89C48.6 91.2 52.8 92.4 58.2 92.4C63.6 92.4 67.9 91.3 70.9 89C73.9 86.9 75.6 83.4 75.5 79.8V79C75.6 76.6 74.8 74.2 73.3 72.3C71.9 70.5 69.8 69.1 67.4 68.4ZM89.2 84.4C87.7 82.7 86.9 80.4 87.1 78.2V66.8H93.9V60.3H87.1V48.2001H80.7V78.2C80.5 82.1 81.9 86 84.6 88.9C86.9 91.3 90 92.7 93.3 92.9L93.9 93V86.8L93.4 86.7C91.9 86.4 90.4 85.6 89.2 84.4ZM260 58.5H260.8V60.8H261.2V58.5H262V58.2001H260V58.5ZM263.7 60.1L263 58.2001H262.4V60.8H262.8V58.6L263.7 60.8H263.9L264.7 58.6V60.8H265.1V58.1H264.4L263.7 60.1Z" fill="#C2C2C2"/>
</g>
<defs>
<clipPath id="clip0">
<rect width="306" height="139" fill="white"/>
</clipPath>
</defs>
</svg>
