<?xml version="1.0" encoding="utf-8"?>
<!-- Generator: Adobe Illustrator 21.0.0, SVG Export Plug-In . SVG Version: 6.00 Build 0)  -->
<svg version="1.1" id="Layer_1" xmlns="http://www.w3.org/2000/svg" xmlns:xlink="http://www.w3.org/1999/xlink" x="0px" y="0px"
	 viewBox="0 0 306 139" style="enable-background:new 0 0 306 139;" xml:space="preserve">
<style type="text/css">
	.st0{fill:#FFFFFF;}
</style>
<g>
	<g>
		<path class="st0" d="M6.2,133.1c-1.5,0.6-2.4-0.1-1.9-1.7l4.3-14c0.5-1.9,0.7-3.9,0.6-5.8L0,23.4c-0.2-1.6,1-3,2.6-3.2
			c0,0,0.1,0,0.1,0L303.2,0c1.4-0.1,2.6,0.9,2.8,2.3c0,0.2,0,0.4,0,0.5l-12.2,133.4c-0.2,1.7-1.6,2.9-3.3,2.8L35.1,122.5
			c-2-0.1-3.9,0.3-5.8,1L6.2,133.1z M144,59.4c-3-0.1-5.9,1-8.1,3.1V48.2h-6.4v29.9c-0.2,3.9,1.2,7.8,3.9,10.7
			c2.6,2.7,6.1,4.1,10.6,4.1s8.1-1.4,10.6-4.1c2.7-2.9,4.1-6.7,3.9-10.7v-3.6C158.5,64.4,153.7,59.4,144,59.4L144,59.4z M144,65.7
			c2.7,0,4.7,0.7,6.1,2s2.1,3.7,2.1,6.8v3.6c0.1,2.3-0.6,4.6-2.2,6.3c-1.6,1.6-3.8,2.4-6,2.3c-2.2,0.1-4.4-0.7-5.9-2.3
			c-1.5-1.7-2.2-4-2.1-6.2v-3.7c0-3.2,0.7-5.4,2-6.8S141.4,65.6,144,65.7L144,65.7z M190.4,66.6h-20.2V48.1h-6.6v44.4h6.6V73h20.2
			v19.4h6.6V48.1h-6.6V66.6z M247.1,59.4c-3-0.1-5.9,1-8.1,3.1V48.2h-6.4v29.9c-0.2,3.9,1.2,7.8,3.9,10.7c2.6,2.7,6.1,4.1,10.6,4.1
			s8.1-1.4,10.6-4.1c2.7-2.9,4.1-6.7,3.9-10.7v-3.6C261.6,64.5,256.7,59.4,247.1,59.4L247.1,59.4z M247.1,65.7c2.7,0,4.7,0.7,6.1,2
			s2.1,3.7,2.1,6.8v3.6c0.1,2.3-0.7,4.6-2.2,6.3c-1.6,1.6-3.8,2.4-6,2.3c-2.2,0.1-4.4-0.7-5.9-2.3c-1.5-1.7-2.2-4-2.1-6.2v-3.7
			c0-3.2,0.7-5.4,2-6.8S244.4,65.6,247.1,65.7L247.1,65.7z M118.2,77.8c0,3.3-0.5,5.7-1.5,7s-2.5,1.9-4.9,1.9h-0.2
			c-2.3,0-4-0.7-4.9-1.9s-1.5-3.7-1.5-7V60.3H99v17.5c0,5.3,1,9.2,2.9,11.5s4.9,3.4,9.1,3.5h1.5c4.2-0.1,7.2-1.3,9.1-3.5
			s2.9-6.2,2.9-11.5V60.3h-6.2L118.2,77.8z M221.3,77.8c0,3.3-0.5,5.6-1.5,7s-2.5,1.9-4.9,1.9h-0.3c-2.3,0-4-0.7-4.9-1.9
			s-1.5-3.7-1.5-7V60.3H202v17.5c0,5.3,1,9.2,2.9,11.5s4.9,3.4,9.1,3.5h1.5c4.1-0.1,7.2-1.3,9.1-3.5s2.9-6.2,2.9-11.5V60.3h-6.3
			L221.3,77.8L221.3,77.8L221.3,77.8z M67.4,68.4l-15.3-5.1c-0.9-0.3-1.7-0.8-2.4-1.4c-0.5-0.4-0.8-1.1-0.9-1.7v-1
			c0-3.6,3-5.4,9.1-5.5h0.6c6.1,0,9.3,1.6,9.6,4.9l0.1,0.5h6.6v-0.6c-0.3-7.5-5.8-11.4-16.3-11.4h-0.7c-10.3,0.1-15.5,4.2-15.5,12v1
			c0,2.1,0.7,4.1,2,5.7c1.6,1.7,3.6,3,5.8,3.6l15.2,5.1c2.6,0.9,3.8,2.3,3.8,4.4v0.9c0,1.9-1.1,3.6-2.8,4.4
			c-2.5,1.3-5.3,1.9-8.1,1.7c-3.5,0-6.1-0.6-8-1.7c-1.7-0.8-2.7-2.6-2.7-4.4v-0.7h-6.5v0.7c-0.1,3.7,1.6,7.1,4.6,9.2
			c3,2.2,7.2,3.4,12.6,3.4s9.7-1.1,12.7-3.4c3-2.1,4.7-5.6,4.6-9.2V79c0.1-2.4-0.7-4.8-2.2-6.7C71.9,70.5,69.8,69.1,67.4,68.4
			L67.4,68.4z M89.2,84.4c-1.5-1.7-2.3-4-2.1-6.2V66.8h6.8v-6.5h-6.8V48.2h-6.4v30c-0.2,3.9,1.2,7.8,3.9,10.7c2.3,2.4,5.4,3.8,8.7,4
			l0.6,0.1v-6.2l-0.5-0.1C91.9,86.4,90.4,85.6,89.2,84.4L89.2,84.4z M260,58.5h0.8v2.3h0.4v-2.3h0.8v-0.3h-2L260,58.5L260,58.5z
			 M263.7,60.1l-0.7-1.9h-0.6v2.6h0.4v-2.2l0.9,2.2h0.2l0.8-2.2v2.2h0.4v-2.7h-0.7L263.7,60.1L263.7,60.1z"/>
	</g>
</g>
</svg>
