<svg width="290" height="101" viewBox="0 0 290 101" fill="none" xmlns="http://www.w3.org/2000/svg">
<g clip-path="url(#clip0)">
<path d="M78.3 98.8C78 98.8 77.9 98.9 77.7 98.9C73.1 98.9 68.6 98.9 64 98.9C63.9 98.9 63.8 98.8 63.6 98.8C63.5 97.4 63.6 95.9 63.5 94.5C63.5 93.1 63.5 91.6 63.5 90.2C63.2 90 63.1 90.2 63 90.3C62.3 91 61.5 91.7 60.8 92.3C55.9 96.4 50.4 98.9 44.2 100C36.6 101.3 29.3 100.6 22.2 97.6C12.6 93.6 6.1 86.5 2.5 76.7C1.2 73.3 0.5 69.7 0.2 66.1C0.1 64.5 0 62.9 0 61.3C0 41.4 0 21.5 0 1.60001C0 1.10001 0 0.600009 0 0.200009C0.4 -0.0999912 0.8 8.79169e-06 1.2 8.79169e-06C5.3 8.79169e-06 9.4 8.79169e-06 13.6 8.79169e-06C14 8.79169e-06 14.3 8.79169e-06 14.7 8.79169e-06C14.8 0.300009 14.8 0.500009 14.8 0.700009C14.8 1.10001 14.8 1.40001 14.8 1.80001C14.8 21.4 14.8 41 14.8 60.7C14.8 63.2 15 65.7 15.5 68.1C16.1 71 17.2 73.7 18.7 76.2C21.7 81.1 26 84.5 31.6 86.2C36.5 87.7 41.4 87.7 46.3 86.3C52.8 84.3 57.5 80.2 60.5 74.2C62 71.2 62.9 68.1 63.2 64.7C63.3 63.4 63.4 62 63.4 60.7C63.4 41 63.4 21.3 63.4 1.60001C63.4 1.10001 63.4 0.600009 63.4 0.100009C63.7 0.100009 63.9 8.79169e-06 64 8.79169e-06C68.6 8.79169e-06 73.1 8.79169e-06 77.7 8.79169e-06C77.8 8.79169e-06 78 8.79169e-06 78.2 0.100009C78.2 0.300009 78.3 0.500009 78.3 0.700009C78.3 1.00001 78.3 1.30001 78.3 1.60001C78.3 33.5 78.3 65.4 78.3 97.3C78.3 97.8 78.3 98.3 78.3 98.8Z" fill="#C2C2C2"/>
<path d="M103.5 90C103.4 91 103.4 91.7 103.4 92.3C103.4 93 103.4 93.8 103.4 94.5C103.4 95.2 103.4 95.9 103.4 96.6C103.4 97.3 103.5 98 103.3 98.7C103.1 98.7 102.9 98.8 102.7 98.8C100.5 98.9 90.2001 98.8 89.3001 98.7C89.3001 98.5 89.2 98.3 89.2 98.1C89.2 97.8 89.2 97.5 89.2 97.2C89.2 65.3 89.2 33.3 89.2 1.39999C89.2 0.899994 89.1001 0.399994 89.3001 -6.10203e-06C89.5001 -6.10203e-06 89.6 -0.100006 89.7 -0.100006C94.2 -0.100006 98.7001 -0.100006 103.3 -0.100006C103.4 0.199994 103.4 0.399994 103.4 0.599994C103.4 0.999994 103.4 1.29999 103.4 1.69999C103.4 12.6 103.4 23.4 103.4 34.3C103.4 34.7 103.3 35.2 103.5 35.7C103.8 35.4 104.1 35.2 104.4 34.9C108.8 30.7 114 27.9 119.9 26.3C123.6 25.3 127.3 25 131.1 25.2C136.7 25.5 142 26.9 146.9 29.6C157.2 35.3 163.6 43.8 166 55.3C168.5 67.5 164.9 80.1 156.1 89.1C150.5 94.8 143.7 98.3 135.9 99.8C133 100.3 130 100.6 127 100.4C118.4 99.9 110.8 96.7 104.4 90.9C104.4 90.8 104 90.5 103.5 90ZM128.1 88C131.8 88 135.3 87.2 138.3 85.8C148.5 81.1 154.5 70 152.4 58.5C150.3 46.9 140.2 38.2 128.4 38.1C124 38.1 119.8 39.1 115.9 41.2C106.5 46.4 101.5 57.1 103.6 67.9C106.1 79.9 116.5 88.1 128.1 88Z" fill="#C2C2C2"/>
<path d="M245.6 67.6C243.1 67.6 189.7 67.6 187.2 67.6C187.2 67.8 187.1 68 187.1 68.1C188.6 75.4 192.4 81.1 198.8 84.9C202.5 87.1 206.5 88.1 210.8 88.1C215.4 88.1 219.8 87.1 223.8 84.7C226.6 83.1 228.9 80.9 230.9 78.4C231.1 78.1 231.4 77.8 231.6 77.5C235 80 238.4 82.5 241.8 85.1C241.7 85.3 241.6 85.4 241.6 85.5C235.8 93 228.3 97.8 219 99.7C214.8 100.6 210.5 100.7 206.2 100.2C201 99.7 196.2 98.2 191.6 95.7C181.9 90.3 175.8 82 173.3 71.2C172.6 68 172.3 64.7 172.5 61.4C173.1 46.5 182.2 33.7 195.3 28.3C198.8 26.8 202.5 26 206.3 25.7C211.9 25.2 217.3 25.9 222.6 27.9C232 31.5 238.6 38.1 242.5 47.4C244 50.9 244.8 54.6 245.3 58.4C245.6 61.4 245.5 64.3 245.5 67.3C245.8 67.2 245.7 67.3 245.6 67.6ZM231.3 56.1C231.3 55.8 231.2 55.6 231.2 55.3C230.8 53.7 230.2 52.1 229.5 50.6C225.1 41.5 215.9 36.8 206.8 38C203.2 38.5 200 39.7 197 41.7C192.2 45.1 189.2 49.7 187.7 55.4C187.6 55.6 187.6 55.8 187.6 56C187.8 56.1 187.9 56.1 188 56.1C202.3 56.1 216.6 56.1 230.9 56.1C230.9 56.2 231.1 56.2 231.3 56.1Z" fill="#C2C2C2"/>
<path d="M267.9 98.9C263.3 98.9 258.8 98.9 254.3 98.9C254.1 98.9 253.9 98.9 253.7 98.8C253.7 98.6 253.6 98.4 253.6 98.2C253.5 94.2 253.6 27.9 253.7 26.9C253.9 26.9 254.1 26.8 254.3 26.8C258.5 26.8 262.8 26.8 267 26.8C267.2 26.8 267.4 26.8 267.5 26.8C267.8 27.1 267.7 27.5 267.7 27.8C267.7 30 267.7 32.2 267.7 34.4C267.7 34.7 267.6 35 267.9 35.3C268.1 35 268.3 34.7 268.6 34.4C270.9 31.2 273.8 28.9 277.5 27.5C279.6 26.7 281.7 26.3 283.9 26.3C285.8 26.3 287.8 26.3 289.7 26.3C289.8 26.5 289.8 26.7 289.8 26.8C289.8 30.9 289.8 35 289.8 39C289.8 39.1 289.8 39.2 289.7 39.3C289.5 39.6 289.1 39.5 288.9 39.5C287.2 39.5 285.5 39.5 283.8 39.5C281.8 39.5 279.9 39.8 278 40.5C274.7 41.8 272.2 44 270.4 47.1C269 49.4 268.3 51.9 267.9 54.5C267.7 55.8 267.7 57.2 267.7 58.5C267.7 71.4 267.7 84.4 267.7 97.3C268 97.9 267.9 98.3 267.9 98.9Z" fill="#C2C2C2"/>
</g>
<defs>
<clipPath id="clip0">
<rect width="290" height="100.7" fill="white"/>
</clipPath>
</defs>
</svg>
