<?xml version="1.0" encoding="utf-8"?>
<!-- Generator: Adobe Illustrator 21.0.0, SVG Export Plug-In . SVG Version: 6.00 Build 0)  -->
<svg version="1.1" id="Layer_1" xmlns="http://www.w3.org/2000/svg" xmlns:xlink="http://www.w3.org/1999/xlink" x="0px" y="0px"
	 viewBox="0 0 290 100.7" style="enable-background:new 0 0 290 100.7;" xml:space="preserve">
<style type="text/css">
	.st0{fill:#FFFFFF;}
</style>
<g>
	<path class="st0" d="M78.3,98.8c-0.3,0-0.4,0.1-0.6,0.1c-4.6,0-9.1,0-13.7,0c-0.1,0-0.2-0.1-0.4-0.1c-0.1-1.4,0-2.9-0.1-4.3
		c0-1.4,0-2.9,0-4.3c-0.3-0.2-0.4,0-0.5,0.1c-0.7,0.7-1.5,1.4-2.2,2c-4.9,4.1-10.4,6.6-16.6,7.7c-7.6,1.3-14.9,0.6-22-2.4
		c-9.6-4-16.1-11.1-19.7-20.9c-1.3-3.4-2-7-2.3-10.6C0.1,64.5,0,62.9,0,61.3C0,41.4,0,21.5,0,1.6c0-0.5,0-1,0-1.4
		C0.4-0.1,0.8,0,1.2,0c4.1,0,8.2,0,12.4,0c0.4,0,0.7,0,1.1,0c0.1,0.3,0.1,0.5,0.1,0.7c0,0.4,0,0.7,0,1.1c0,19.6,0,39.2,0,58.9
		c0,2.5,0.2,5,0.7,7.4c0.6,2.9,1.7,5.6,3.2,8.1c3,4.9,7.3,8.3,12.9,10c4.9,1.5,9.8,1.5,14.7,0.1c6.5-2,11.2-6.1,14.2-12.1
		c1.5-3,2.4-6.1,2.7-9.5c0.1-1.3,0.2-2.7,0.2-4c0-19.7,0-39.4,0-59.1c0-0.5,0-1,0-1.5C63.7,0.1,63.9,0,64,0c4.6,0,9.1,0,13.7,0
		c0.1,0,0.3,0,0.5,0.1c0,0.2,0.1,0.4,0.1,0.6c0,0.3,0,0.6,0,0.9c0,31.9,0,63.8,0,95.7C78.3,97.8,78.3,98.3,78.3,98.8z"/>
	<path class="st0" d="M103.5,90c-0.1,1-0.1,1.7-0.1,2.3c0,0.7,0,1.5,0,2.2c0,0.7,0,1.4,0,2.1c0,0.7,0.1,1.4-0.1,2.1
		c-0.2,0-0.4,0.1-0.6,0.1c-2.2,0.1-12.5,0-13.4-0.1c0-0.2-0.1-0.4-0.1-0.6c0-0.3,0-0.6,0-0.9c0-31.9,0-63.9,0-95.8
		c0-0.5-0.1-1,0.1-1.4c0.2,0,0.3-0.1,0.4-0.1c4.5,0,9,0,13.6,0c0.1,0.3,0.1,0.5,0.1,0.7c0,0.4,0,0.7,0,1.1c0,10.9,0,21.7,0,32.6
		c0,0.4-0.1,0.9,0.1,1.4c0.3-0.3,0.6-0.5,0.9-0.8c4.4-4.2,9.6-7,15.5-8.6c3.7-1,7.4-1.3,11.2-1.1c5.6,0.3,10.9,1.7,15.8,4.4
		c10.3,5.7,16.7,14.2,19.1,25.7c2.5,12.2-1.1,24.8-9.9,33.8c-5.6,5.7-12.4,9.2-20.2,10.7c-2.9,0.5-5.9,0.8-8.9,0.6
		c-8.6-0.5-16.2-3.7-22.6-9.5C104.4,90.8,104,90.5,103.5,90z M128.1,88c3.7,0,7.2-0.8,10.2-2.2c10.2-4.7,16.2-15.8,14.1-27.3
		c-2.1-11.6-12.2-20.3-24-20.4c-4.4,0-8.6,1-12.5,3.1c-9.4,5.2-14.4,15.9-12.3,26.7C106.1,79.9,116.5,88.1,128.1,88z"/>
	<path class="st0" d="M245.6,67.6c-2.5,0-55.9,0-58.4,0c0,0.2-0.1,0.4-0.1,0.5c1.5,7.3,5.3,13,11.7,16.8c3.7,2.2,7.7,3.2,12,3.2
		c4.6,0,9-1,13-3.4c2.8-1.6,5.1-3.8,7.1-6.3c0.2-0.3,0.5-0.6,0.7-0.9c3.4,2.5,6.8,5,10.2,7.6c-0.1,0.2-0.2,0.3-0.2,0.4
		c-5.8,7.5-13.3,12.3-22.6,14.2c-4.2,0.9-8.5,1-12.8,0.5c-5.2-0.5-10-2-14.6-4.5c-9.7-5.4-15.8-13.7-18.3-24.5
		c-0.7-3.2-1-6.5-0.8-9.8c0.6-14.9,9.7-27.7,22.8-33.1c3.5-1.5,7.2-2.3,11-2.6c5.6-0.5,11,0.2,16.3,2.2c9.4,3.6,16,10.2,19.9,19.5
		c1.5,3.5,2.3,7.2,2.8,11c0.3,3,0.2,5.9,0.2,8.9C245.8,67.2,245.7,67.3,245.6,67.6z M231.3,56.1c0-0.3-0.1-0.5-0.1-0.8
		c-0.4-1.6-1-3.2-1.7-4.7c-4.4-9.1-13.6-13.8-22.7-12.6c-3.6,0.5-6.8,1.7-9.8,3.7c-4.8,3.4-7.8,8-9.3,13.7c-0.1,0.2-0.1,0.4-0.1,0.6
		c0.2,0.1,0.3,0.1,0.4,0.1c14.3,0,28.6,0,42.9,0C230.9,56.2,231.1,56.2,231.3,56.1z"/>
	<path class="st0" d="M267.9,98.9c-4.6,0-9.1,0-13.6,0c-0.2,0-0.4,0-0.6-0.1c0-0.2-0.1-0.4-0.1-0.6c-0.1-4,0-70.3,0.1-71.3
		c0.2,0,0.4-0.1,0.6-0.1c4.2,0,8.5,0,12.7,0c0.2,0,0.4,0,0.5,0c0.3,0.3,0.2,0.7,0.2,1c0,2.2,0,4.4,0,6.6c0,0.3-0.1,0.6,0.2,0.9
		c0.2-0.3,0.4-0.6,0.7-0.9c2.3-3.2,5.2-5.5,8.9-6.9c2.1-0.8,4.2-1.2,6.4-1.2c1.9,0,3.9,0,5.8,0c0.1,0.2,0.1,0.4,0.1,0.5
		c0,4.1,0,8.2,0,12.2c0,0.1,0,0.2-0.1,0.3c-0.2,0.3-0.6,0.2-0.8,0.2c-1.7,0-3.4,0-5.1,0c-2,0-3.9,0.3-5.8,1
		c-3.3,1.3-5.8,3.5-7.6,6.6c-1.4,2.3-2.1,4.8-2.5,7.4c-0.2,1.3-0.2,2.7-0.2,4c0,12.9,0,25.9,0,38.8C268,97.9,267.9,98.3,267.9,98.9z
		"/>
</g>
</svg>
