<svg width="270" height="125" viewBox="0 0 270 125" fill="none" xmlns="http://www.w3.org/2000/svg">
<g clip-path="url(#clip0)">
<path d="M120.5 102.8C120.5 106.1 117.8 108.8 114.5 108.8C111.2 108.8 108.5 106.1 108.5 102.8V43.3C108.5 40 111.2 37.3 114.5 37.3C117.8 37.3 120.5 40 120.5 43.3V102.8Z" fill="#C2C2C2"/>
<path d="M68.5999 86.1H90.5999C93.9999 85.8 96.6 82.9 96.4 79.4V79.1C95.3 57.3 81.3 54.1 74.9 54.1C68.3 54.1 53.2 58 53.2 82.3C53.3 91.4 55.2999 108.9 74.5 108.9C91.1 108.9 94.9 99.3 94.9 96.9C94.9 93.3 91.9 90.2 88.5 91.4C85.7 92.3 82 97.8 75.9 97.8C67.2 97.8 66 89.9 66 88.2C66 86.7 66.6999 86.2 68.5999 86.1ZM66 75.4C66.4 67.2 72.7 65.8 75.5 65.8C78.3 65.8 84.6 67.2 85 75.6C85 76 84.8 76.3 84.5 76.3H66.5C66.2 76.3 65.9 76 66 75.4Z" fill="#C2C2C2"/>
<path d="M19.4 101.3L0.599967 63.1C-0.800033 60 0.699967 56.4 3.79997 55C6.69997 53.7 10.1 54.9 11.7 57.7L26.2 87.3L35.1 58.6C36.2 55.4 39.7 53.6 42.9 54.7C46 55.7 47.8 59.1 46.9 62.2C46.9 62.2 36.9 94.9 30.8 113.7C28.8 119.9 23.6 123 15.7 122.8C7.79997 122.6 6.79997 118 7.69997 115C8.59997 111.7 11.4 110.7 14.1 110.7C21.1 110.8 22 106.5 19.4 101.3Z" fill="#C2C2C2"/>
<path d="M192.4 90.1C194.2 90.1 195.7 91.6 195.7 93.5C195.7 95.4 194.2 96.8 192.3 96.8C190.5 96.8 189.1 95.3 189 93.5C189 91.6 190.5 90.1 192.4 90.1C192.4 90.1 192.3 90.1 192.4 90.1ZM192.4 96.3C194 96.3 195.2 95 195.2 93.5C195.2 91.9 193.9 90.7 192.4 90.7C190.8 90.7 189.6 92 189.6 93.5C189.5 95 190.8 96.2 192.4 96.3C192.4 96.3 192.3 96.3 192.4 96.3ZM191.1 91.5H192.5C193.4 91.5 193.9 91.8 193.9 92.6C193.9 93.2 193.5 93.6 192.9 93.6L194 95.3H193.4L192.3 93.6H191.6V95.3H191.1V91.5ZM191.7 93.2H192.4C192.9 93.2 193.4 93.2 193.4 92.6C193.4 92 192.9 92 192.5 92H191.7V93.2Z" fill="#C2C2C2"/>
<path d="M179.7 79C179.7 71.2 178.7 60.4 168.8 55.7C163.1 53 156.5 53.2 151 56.2C149.9 56.8 148.9 57.5 147.9 58.2C147.1 55 143.8 53 140.6 53.8C137.9 54.5 136.1 56.8 136.1 59.6V119C136.1 122.3 138.8 125 142.1 125C145.4 125 148.1 122.3 148.1 119V103.4C150.8 106.4 154.5 108.2 158.5 108.5C181.4 109.1 179.9 84.4 179.7 79ZM167.9 83.5C167.9 88.2 167.9 96.7 159.3 96.7C150.7 96.7 150.7 88.2 150.7 83.5V79.2C150.7 74.5 150.7 66 159.3 66C167.9 66 167.9 74.5 167.9 79.2V83.5Z" fill="#C2C2C2"/>
<path d="M198.6 50.3L219.5 60.5C221.9 61.7 222.9 64.5 221.7 66.9C221.1 68.2 219.9 69.1 218.5 69.5L196 75C193.4 75.6 190.8 74.1 190.2 71.5C190.2 71.3 190.1 71.1 190.1 70.9C189.4 64.9 190.1 58.8 192 53.1C192.9 50.6 195.6 49.2 198.1 50.1C198.3 50.2 198.5 50.2 198.6 50.3Z" fill="#C2C2C2"/>
<path d="M207 93.3L222.6 76C224.4 74 227.4 73.8 229.4 75.6C230.5 76.6 231.1 77.9 231 79.4L230.2 102.6C230.1 105.2 227.9 107.3 225.2 107.2C225 107.2 224.8 107.2 224.6 107.1C218.6 106.1 212.9 103.8 207.9 100.4C205.7 98.9 205.1 96 206.6 93.8C206.7 93.6 206.9 93.4 207 93.3Z" fill="#C2C2C2"/>
<path d="M244 70.3L266.2 77.5C268.7 78.3 270.1 81 269.3 83.5C269.2 83.7 269.2 83.9 269.1 84.1C266.5 89.6 262.7 94.4 258 98.2C255.9 99.9 252.9 99.6 251.2 97.5C251.1 97.3 251 97.2 250.8 97L238.4 77.3C237 75.1 237.7 72.1 239.9 70.7C241.2 70 242.6 69.9 244 70.3Z" fill="#C2C2C2"/>
<path d="M266.5 56.2L244.1 62.6C241.6 63.3 238.9 61.9 238.2 59.3C237.8 57.9 238 56.5 238.8 55.3L251.8 36.1C253.3 33.9 256.3 33.3 258.5 34.8C258.7 34.9 258.8 35 259 35.2C263.6 39.2 267.2 44.2 269.6 49.7C270.7 52.1 269.5 54.9 267.1 56C266.9 56.1 266.7 56.2 266.5 56.2Z" fill="#C2C2C2"/>
<path d="M214.2 2.1C210.2 3.2 206.4 4.6 202.7 6.3C200.3 7.4 199.3 10.3 200.4 12.7C200.5 12.8 200.5 12.9 200.6 13L222.5 50.8C223.8 53.1 226.7 54 229 52.7C230.5 51.8 231.5 50.2 231.5 48.4V4.8C231.5 2.2 229.4 0 226.7 0C226.6 0 226.4 0 226.3 0C222.2 0.3 218.1 1 214.2 2.1Z" fill="#C2C2C2"/>
</g>
<defs>
<clipPath id="clip0">
<rect width="270" height="125" fill="white"/>
</clipPath>
</defs>
</svg>
