<?xml version="1.0" encoding="utf-8"?>
<!-- Generator: Adobe Illustrator 21.0.0, SVG Export Plug-In . SVG Version: 6.00 Build 0)  -->
<svg version="1.1" id="Layer_1" xmlns="http://www.w3.org/2000/svg" xmlns:xlink="http://www.w3.org/1999/xlink" x="0px" y="0px"
	 viewBox="0 0 270 125" style="enable-background:new 0 0 270 125;" xml:space="preserve">
<style type="text/css">
	.st0{fill:#FFFFFF;}
</style>
<g id="Layer_2">
	<g id="Layer_1-2">
		<g id="_Group_">
			<path id="_Path_" class="st0" d="M120.5,102.8c0,3.3-2.7,6-6,6s-6-2.7-6-6V43.3c0-3.3,2.7-6,6-6s6,2.7,6,6V102.8z"/>
			<path id="_Compound_Path_" class="st0" d="M68.6,86.1h22c3.4-0.3,6-3.2,5.8-6.7v-0.3c-1.1-21.8-15.1-25-21.5-25
				c-6.6,0-21.7,3.9-21.7,28.2c0.1,9.1,2.1,26.6,21.3,26.6c16.6,0,20.4-9.6,20.4-12c0-3.6-3-6.7-6.4-5.5c-2.8,0.9-6.5,6.4-12.6,6.4
				c-8.7,0-9.9-7.9-9.9-9.6C66,86.7,66.7,86.2,68.6,86.1z M66,75.4c0.4-8.2,6.7-9.6,9.5-9.6s9.1,1.4,9.5,9.8c0,0.4-0.2,0.7-0.5,0.7
				h-18C66.2,76.3,65.9,76,66,75.4z"/>
			<path id="_Path_2" class="st0" d="M19.4,101.3L0.6,63.1c-1.4-3.1,0.1-6.7,3.2-8.1c2.9-1.3,6.3-0.1,7.9,2.7l14.5,29.6l8.9-28.7
				c1.1-3.2,4.6-5,7.8-3.9c3.1,1,4.9,4.4,4,7.5c0,0-10,32.7-16.1,51.5c-2,6.2-7.2,9.3-15.1,9.1S6.8,118,7.7,115
				c0.9-3.3,3.7-4.3,6.4-4.3C21.1,110.8,22,106.5,19.4,101.3z"/>
			<path id="_Compound_Path_2" class="st0" d="M192.4,90.1c1.8,0,3.3,1.5,3.3,3.4s-1.5,3.3-3.4,3.3c-1.8,0-3.2-1.5-3.3-3.3
				C189,91.6,190.5,90.1,192.4,90.1C192.3,90.1,192.4,90.1,192.4,90.1z M192.4,96.3c1.6,0,2.8-1.3,2.8-2.8c0-1.6-1.3-2.8-2.8-2.8
				c-1.6,0-2.8,1.3-2.8,2.8c0,0,0,0,0,0C189.5,95,190.8,96.2,192.4,96.3C192.3,96.3,192.4,96.3,192.4,96.3z M191.1,91.5h1.4
				c0.9,0,1.4,0.3,1.4,1.1c0,0.6-0.4,1-1,1l1.1,1.7h-0.6l-1.1-1.7h-0.7v1.7h-0.5L191.1,91.5z M191.7,93.2h0.7c0.5,0,1,0,1-0.6
				s-0.5-0.6-0.9-0.6h-0.8L191.7,93.2z"/>
			<path id="_Compound_Path_3" class="st0" d="M179.7,79c0-7.8-1-18.6-10.9-23.3c-5.7-2.7-12.3-2.5-17.8,0.5c-1.1,0.6-2.1,1.3-3.1,2
				c-0.8-3.2-4.1-5.2-7.3-4.4c-2.7,0.7-4.5,3-4.5,5.8V119c0,3.3,2.7,6,6,6s6-2.7,6-6v-15.6c2.7,3,6.4,4.8,10.4,5.1
				C181.4,109.1,179.9,84.4,179.7,79L179.7,79z M167.9,83.5c0,4.7,0,13.2-8.6,13.2s-8.6-8.5-8.6-13.2v-4.3c0-4.7,0-13.2,8.6-13.2
				s8.6,8.5,8.6,13.2V83.5z"/>
			<path id="_Path_3" class="st0" d="M198.6,50.3l20.9,10.2c2.4,1.2,3.4,4,2.2,6.4c-0.6,1.3-1.8,2.2-3.2,2.6L196,75
				c-2.6,0.6-5.2-0.9-5.8-3.5c0-0.2-0.1-0.4-0.1-0.6c-0.7-6,0-12.1,1.9-17.8c0.9-2.5,3.6-3.9,6.1-3
				C198.3,50.2,198.5,50.2,198.6,50.3z"/>
			<path id="_Path_4" class="st0" d="M207,93.3L222.6,76c1.8-2,4.8-2.2,6.8-0.4c1.1,1,1.7,2.3,1.6,3.8l-0.8,23.2
				c-0.1,2.6-2.3,4.7-5,4.6c-0.2,0-0.4,0-0.6-0.1c-6-1-11.7-3.3-16.7-6.7c-2.2-1.5-2.8-4.4-1.3-6.6C206.7,93.6,206.9,93.4,207,93.3z
				"/>
			<path id="_Path_5" class="st0" d="M244,70.3l22.2,7.2c2.5,0.8,3.9,3.5,3.1,6c-0.1,0.2-0.1,0.4-0.2,0.6
				c-2.6,5.5-6.4,10.3-11.1,14.1c-2.1,1.7-5.1,1.4-6.8-0.7c-0.1-0.2-0.2-0.3-0.4-0.5l-12.4-19.7c-1.4-2.2-0.7-5.2,1.5-6.6
				C241.2,70,242.6,69.9,244,70.3L244,70.3z"/>
			<path id="_Path_6" class="st0" d="M266.5,56.2l-22.4,6.4c-2.5,0.7-5.2-0.7-5.9-3.3c-0.4-1.4-0.2-2.8,0.6-4l13-19.2
				c1.5-2.2,4.5-2.8,6.7-1.3c0.2,0.1,0.3,0.2,0.5,0.4c4.6,4,8.2,9,10.6,14.5c1.1,2.4-0.1,5.2-2.5,6.3
				C266.9,56.1,266.7,56.2,266.5,56.2L266.5,56.2z"/>
			<path id="_Path_7" class="st0" d="M214.2,2.1c-4,1.1-7.8,2.5-11.5,4.2c-2.4,1.1-3.4,4-2.3,6.4c0.1,0.1,0.1,0.2,0.2,0.3l21.9,37.8
				c1.3,2.3,4.2,3.2,6.5,1.9c1.5-0.9,2.5-2.5,2.5-4.3V4.8c0-2.6-2.1-4.8-4.8-4.8c-0.1,0-0.3,0-0.4,0C222.2,0.3,218.1,1,214.2,2.1
				L214.2,2.1z"/>
		</g>
	</g>
</g>
</svg>
